<svg xmlns="http://www.w3.org/2000/svg" xmlns:xlink="http://www.w3.org/1999/xlink" xmlns:lucid="lucid" width="1595.2" height="1260"><g transform="translate(-40 0)" lucid:page-tab-id="0_0"><path d="M0 0h1870.4v1323.2H0z" fill="#fff"/><path d="M420 25c0-2.76 2.24-5 5-5h270c2.76 0 5 2.24 5 5v290c0 2.76-2.24 5-5 5H425c-2.76 0-5-2.24-5-5z" stroke="#000" stroke-width="2" fill="#fff"/><path d="M420 58h280M420 285h280" stroke="#000" stroke-width="2" fill="none"/><use xlink:href="#a" transform="matrix(1,0,0,1,428,20) translate(85.07499999999999 22.6)"/><use xlink:href="#b" transform="matrix(1,0,0,1,432,65.6) translate(0 14.4)"/><use xlink:href="#c" transform="matrix(1,0,0,1,432,65.6) translate(0 36)"/><use xlink:href="#d" transform="matrix(1,0,0,1,432,65.6) translate(0 57.6)"/><use xlink:href="#e" transform="matrix(1,0,0,1,432,65.6) translate(0 79.20000000000002)"/><use xlink:href="#f" transform="matrix(1,0,0,1,432,65.6) translate(0 100.80000000000001)"/><use xlink:href="#g" transform="matrix(1,0,0,1,432,65.6) translate(0 122.4)"/><use xlink:href="#h" transform="matrix(1,0,0,1,432,65.6) translate(0 144)"/><use xlink:href="#i" transform="matrix(1,0,0,1,432,65.6) translate(0 165.6)"/><use xlink:href="#j" transform="matrix(1,0,0,1,432,65.6) translate(0 187.2)"/><use xlink:href="#k" transform="matrix(1,0,0,1,432,65.6) translate(0 208.79999999999998)"/><path d="M100 741c0-2.76 2.24-5 5-5h250c2.76 0 5 2.24 5 5v198c0 2.76-2.24 5-5 5H105c-2.76 0-5-2.24-5-5z" stroke="#000" stroke-width="2" fill="#fff"/><path d="M100 774h260M100 919h260" stroke="#000" stroke-width="2" fill="none"/><use xlink:href="#l" transform="matrix(1,0,0,1,108,736) translate(73.9 22.6)"/><use xlink:href="#b" transform="matrix(1,0,0,1,112,781.6) translate(0 14.600000000000003)"/><use xlink:href="#m" transform="matrix(1,0,0,1,112,781.6) translate(0 36.2)"/><use xlink:href="#n" transform="matrix(1,0,0,1,112,781.6) translate(0 57.800000000000004)"/><use xlink:href="#o" transform="matrix(1,0,0,1,112,781.6) translate(0 79.40000000000002)"/><use xlink:href="#p" transform="matrix(1,0,0,1,112,781.6) translate(0 101.00000000000001)"/><use xlink:href="#q" transform="matrix(1,0,0,1,112,781.6) translate(0 122.60000000000001)"/><path d="M80 1025c0-2.76 2.24-5 5-5h210c2.76 0 5 2.24 5 5v210c0 2.76-2.24 5-5 5H85c-2.76 0-5-2.24-5-5z" stroke="#000" stroke-width="2" fill="#fff"/><path d="M80 1058h220M80 1215h220" stroke="#000" stroke-width="2" fill="none"/><use xlink:href="#r" transform="matrix(1,0,0,1,88,1020) translate(35.79999999999998 22.6)"/><use xlink:href="#b" transform="matrix(1,0,0,1,92,1065.6) translate(0 14.4)"/><use xlink:href="#s" transform="matrix(1,0,0,1,92,1065.6) translate(0 36)"/><use xlink:href="#m" transform="matrix(1,0,0,1,92,1065.6) translate(0 57.6)"/><use xlink:href="#d" transform="matrix(1,0,0,1,92,1065.6) translate(0 79.20000000000002)"/><use xlink:href="#t" transform="matrix(1,0,0,1,92,1065.6) translate(0 100.80000000000001)"/><use xlink:href="#u" transform="matrix(1,0,0,1,92,1065.6) translate(0 122.4)"/><use xlink:href="#v" transform="matrix(1,0,0,1,92,1065.6) translate(0 144)"/><path d="M480 928.2c0-2.76 2.24-5 5-5h190c2.76 0 5 2.24 5 5v170c0 2.76-2.24 5-5 5H485c-2.76 0-5-2.24-5-5z" stroke="#000" stroke-width="2" fill="#fff"/><path d="M480 982h200m-200 97h200" stroke="#000" stroke-width="2" fill="none"/><use xlink:href="#w" transform="matrix(1,0,0,1,488,923.1999999999998) translate(55.224999999999994 22.799999999999997)"/><use xlink:href="#x" transform="matrix(1,0,0,1,488,923.1999999999998) translate(92 44.4)"/><use xlink:href="#y" transform="matrix(1,0,0,1,492,990.3999999999999) translate(0 22.5)"/><use xlink:href="#d" transform="matrix(1,0,0,1,492,990.3999999999999) translate(0 44.1)"/><use xlink:href="#z" transform="matrix(1,0,0,1,492,990.3999999999999) translate(0 65.7)"/><path d="M60 37c0-2.76 2.24-5 5-5h190c2.76 0 5 2.24 5 5v158c0 2.76-2.24 5-5 5H65c-2.76 0-5-2.24-5-5z" stroke="#000" stroke-width="2" fill="#fff"/><path d="M60 70h200M60 176h200" stroke="#000" stroke-width="2" fill="none"/><use xlink:href="#A" transform="matrix(1,0,0,1,68,32) translate(61.525 22.6)"/><use xlink:href="#b" transform="matrix(1,0,0,1,72,77.6) translate(0 16.69999999999999)"/><use xlink:href="#B" transform="matrix(1,0,0,1,72,77.6) translate(0 38.29999999999999)"/><use xlink:href="#d" transform="matrix(1,0,0,1,72,77.6) translate(0 59.89999999999999)"/><use xlink:href="#z" transform="matrix(1,0,0,1,72,77.6) translate(0 81.5)"/><path d="M800 25c0-2.76 2.24-5 5-5h305.2c2.76 0 5 2.24 5 5v190c0 2.76-2.24 5-5 5H805c-2.76 0-5-2.24-5-5z" stroke="#000" stroke-width="2" fill="#fff"/><path d="M800 79h315.2" stroke="#000" stroke-width="2" fill="none"/><use xlink:href="#C" transform="matrix(1,0,0,1,808,20) translate(61.70000000000002 22.799999999999997)"/><use xlink:href="#x" transform="matrix(1,0,0,1,808,20) translate(150 44.4)"/><use xlink:href="#D" transform="matrix(1,0,0,1,812,87.2) translate(0 22.89999999999999)"/><use xlink:href="#E" transform="matrix(1,0,0,1,812,87.2) translate(0 44.49999999999999)"/><use xlink:href="#F" transform="matrix(1,0,0,1,812,87.2) translate(0 66.1)"/><use xlink:href="#G" transform="matrix(1,0,0,1,812,87.2) translate(0 87.70000000000002)"/><use xlink:href="#H" transform="matrix(1,0,0,1,812,87.2) translate(0 109.30000000000001)"/><path d="M60 357c0-2.76 2.24-5 5-5h310c2.76 0 5 2.24 5 5v298c0 2.76-2.24 5-5 5H65c-2.76 0-5-2.24-5-5z" stroke="#000" stroke-width="2" fill="#fff"/><path d="M60 411h320M60 634h320" stroke="#000" stroke-width="2" fill="none"/><use xlink:href="#I" transform="matrix(1,0,0,1,68,352) translate(78.27499999999999 22.799999999999997)"/><use xlink:href="#x" transform="matrix(1,0,0,1,68,352) translate(152 44.4)"/><use xlink:href="#n" transform="matrix(1,0,0,1,72,419.2) translate(0 20.70000000000001)"/><use xlink:href="#J" transform="matrix(1,0,0,1,72,419.2) translate(0 42.30000000000001)"/><use xlink:href="#K" transform="matrix(1,0,0,1,72,419.2) translate(0 63.90000000000001)"/><use xlink:href="#L" transform="matrix(1,0,0,1,72,419.2) translate(0 85.50000000000003)"/><use xlink:href="#y" transform="matrix(1,0,0,1,72,419.2) translate(0 107.10000000000002)"/><use xlink:href="#M" transform="matrix(1,0,0,1,72,419.2) translate(0 128.70000000000002)"/><use xlink:href="#c" transform="matrix(1,0,0,1,72,419.2) translate(0 150.3)"/><use xlink:href="#o" transform="matrix(1,0,0,1,72,419.2) translate(0 171.9)"/><use xlink:href="#N" transform="matrix(1,0,0,1,72,419.2) translate(0 193.5)"/><path d="M800 285c0-2.76 2.24-5 5-5h325.2c2.76 0 5 2.24 5 5v190c0 2.76-2.24 5-5 5H805c-2.76 0-5-2.24-5-5z" stroke="#000" stroke-width="2" fill="#fff"/><path d="M800 339h335.2" stroke="#000" stroke-width="2" fill="none"/><use xlink:href="#O" transform="matrix(1,0,0,1,808,280) translate(44.90000000000002 22.799999999999997)"/><use xlink:href="#x" transform="matrix(1,0,0,1,808,280) translate(160 44.4)"/><use xlink:href="#D" transform="matrix(1,0,0,1,812,347.2) translate(0 22.89999999999999)"/><use xlink:href="#P" transform="matrix(1,0,0,1,812,347.2) translate(0 44.49999999999999)"/><use xlink:href="#F" transform="matrix(1,0,0,1,812,347.2) translate(0 66.1)"/><use xlink:href="#G" transform="matrix(1,0,0,1,812,347.2) translate(0 87.70000000000002)"/><use xlink:href="#H" transform="matrix(1,0,0,1,812,347.2) translate(0 109.30000000000001)"/><path d="M800 908.2c0-2.76 2.24-5 5-5h325.2c2.76 0 5 2.24 5 5v210c0 2.76-2.24 5-5 5H805c-2.76 0-5-2.24-5-5z" stroke="#000" stroke-width="2" fill="#fff"/><path d="M800 962h335.2" stroke="#000" stroke-width="2" fill="none"/><use xlink:href="#Q" transform="matrix(1,0,0,1,808,903.1999999999998) translate(75.85000000000002 22.799999999999997)"/><use xlink:href="#x" transform="matrix(1,0,0,1,808,903.1999999999998) translate(160 44.4)"/><use xlink:href="#D" transform="matrix(1,0,0,1,812,970.3999999999999) translate(0 14.4)"/><use xlink:href="#P" transform="matrix(1,0,0,1,812,970.3999999999999) translate(0 36)"/><use xlink:href="#F" transform="matrix(1,0,0,1,812,970.3999999999999) translate(0 57.6)"/><use xlink:href="#G" transform="matrix(1,0,0,1,812,970.3999999999999) translate(0 79.20000000000002)"/><use xlink:href="#R" transform="matrix(1,0,0,1,812,970.3999999999999) translate(0 100.80000000000001)"/><use xlink:href="#S" transform="matrix(1,0,0,1,812,970.3999999999999) translate(0 122.4)"/><use xlink:href="#b" transform="matrix(1,0,0,1,812,970.3999999999999) translate(0 144)"/><use xlink:href="#x" transform="matrix(1,0,0,1,812,970.3999999999999) translate(0 165.6)"/><path d="M800 586.6c0-2.76 2.24-5 5-5h325.2c2.76 0 5 2.24 5 5v210c0 2.76-2.24 5-5 5H805c-2.76 0-5-2.24-5-5z" stroke="#000" stroke-width="2" fill="#fff"/><path d="M800 641h335.2" stroke="#000" stroke-width="2" fill="none"/><use xlink:href="#T" transform="matrix(1,0,0,1,808,581.5999999999999) translate(70.52500000000002 22.799999999999997)"/><use xlink:href="#x" transform="matrix(1,0,0,1,808,581.5999999999999) translate(160 44.4)"/><use xlink:href="#D" transform="matrix(1,0,0,1,812,648.8) translate(0 22.1)"/><use xlink:href="#U" transform="matrix(1,0,0,1,812,648.8) translate(0 43.7)"/><use xlink:href="#F" transform="matrix(1,0,0,1,812,648.8) translate(0 65.30000000000001)"/><use xlink:href="#G" transform="matrix(1,0,0,1,812,648.8) translate(0 86.90000000000002)"/><use xlink:href="#R" transform="matrix(1,0,0,1,812,648.8) translate(0 108.50000000000001)"/><use xlink:href="#V" transform="matrix(1,0,0,1,812,648.8) translate(0 130.1)"/><path d="M1320 25c0-2.76 2.24-5 5-5h285.2c2.76 0 5 2.24 5 5v190c0 2.76-2.24 5-5 5H1325c-2.76 0-5-2.24-5-5z" stroke="#000" stroke-width="2" fill="#fff"/><path d="M1320 58h295.2" stroke="#000" stroke-width="2" fill="none"/><use xlink:href="#W" transform="matrix(1,0,0,1,1328,20) translate(66.125 22.6)"/><use xlink:href="#X" transform="matrix(1,0,0,1,1332,65.6) translate(0 14.4)"/><use xlink:href="#Y" transform="matrix(1,0,0,1,1332,65.6) translate(0 36)"/><use xlink:href="#Z" transform="matrix(1,0,0,1,1332,65.6) translate(0 57.6)"/><use xlink:href="#aa" transform="matrix(1,0,0,1,1332,65.6) translate(0 79.20000000000002)"/><use xlink:href="#ab" transform="matrix(1,0,0,1,1332,65.6) translate(0 100.80000000000001)"/><use xlink:href="#ac" transform="matrix(1,0,0,1,1332,65.6) translate(0 122.4)"/><use xlink:href="#ad" transform="matrix(1,0,0,1,1332,65.6) translate(0 144)"/><path d="M1320 289.2c0-2.76 2.24-5 5-5h285.2c2.76 0 5 2.24 5 5v181.6c0 2.76-2.24 5-5 5H1325c-2.76 0-5-2.24-5-5z" stroke="#000" stroke-width="2" fill="#fff"/><path d="M1320 322h295.2" stroke="#000" stroke-width="2" fill="none"/><g><use xlink:href="#ae" transform="matrix(1,0,0,1,1328,284.20000000000005) translate(45.325 22.6)"/></g><g><use xlink:href="#X" transform="matrix(1,0,0,1,1332,329.80000000000007) translate(0 18.6)"/><use xlink:href="#Y" transform="matrix(1,0,0,1,1332,329.80000000000007) translate(0 40.2)"/><use xlink:href="#Z" transform="matrix(1,0,0,1,1332,329.80000000000007) translate(0 61.800000000000004)"/><use xlink:href="#af" transform="matrix(1,0,0,1,1332,329.80000000000007) translate(0 83.40000000000002)"/><use xlink:href="#ac" transform="matrix(1,0,0,1,1332,329.80000000000007) translate(0 105.00000000000001)"/><use xlink:href="#ad" transform="matrix(1,0,0,1,1332,329.80000000000007) translate(0 126.60000000000001)"/></g><path d="M1330 928.2c0-2.76 2.24-5 5-5h275.2c2.76 0 5 2.24 5 5v170c0 2.76-2.24 5-5 5H1335c-2.76 0-5-2.24-5-5z" stroke="#000" stroke-width="2" fill="#fff"/><path d="M1330 961h285.2" stroke="#000" stroke-width="2" fill="none"/><g><use xlink:href="#ag" transform="matrix(1,0,0,1,1338,923.1999999999998) translate(65.275 22.6)"/></g><g><use xlink:href="#X" transform="matrix(1,0,0,1,1342,968.7999999999998) translate(0 14.4)"/><use xlink:href="#Y" transform="matrix(1,0,0,1,1342,968.7999999999998) translate(0 36)"/><use xlink:href="#aa" transform="matrix(1,0,0,1,1342,968.7999999999998) translate(0 57.6)"/><use xlink:href="#ah" transform="matrix(1,0,0,1,1342,968.7999999999998) translate(0 79.20000000000002)"/><use xlink:href="#ac" transform="matrix(1,0,0,1,1342,968.7999999999998) translate(0 100.80000000000001)"/><use xlink:href="#ad" transform="matrix(1,0,0,1,1342,968.7999999999998) translate(0 122.4)"/></g><path d="M1330 586.6c0-2.76 2.24-5 5-5h275.2c2.76 0 5 2.24 5 5v210c0 2.76-2.24 5-5 5H1335c-2.76 0-5-2.24-5-5z" stroke="#000" stroke-width="2" fill="#fff"/><path d="M1330 619h285.2" stroke="#000" stroke-width="2" fill="none"/><g><use xlink:href="#ai" transform="matrix(1,0,0,1,1338,581.5999999999999) translate(59.95 22.6)"/></g><g><use xlink:href="#X" transform="matrix(1,0,0,1,1342,627.1999999999999) translate(0 22.300000000000004)"/><use xlink:href="#Y" transform="matrix(1,0,0,1,1342,627.1999999999999) translate(0 43.900000000000006)"/><use xlink:href="#aj" transform="matrix(1,0,0,1,1342,627.1999999999999) translate(0 65.50000000000001)"/><use xlink:href="#af" transform="matrix(1,0,0,1,1342,627.1999999999999) translate(0 87.10000000000002)"/><use xlink:href="#ak" transform="matrix(1,0,0,1,1342,627.1999999999999) translate(0 108.70000000000002)"/><use xlink:href="#ac" transform="matrix(1,0,0,1,1342,627.1999999999999) translate(0 130.3)"/><use xlink:href="#ad" transform="matrix(1,0,0,1,1342,627.1999999999999) translate(0 151.9)"/></g><path d="M702 120.67h9.67c.18 0 .33-.15.33-.34 0-.18.15-.33.33-.33h68.17" stroke="#000" stroke-width="2" fill="none"/><path d="M702.03 121.67H701v-2h1.03z"/><path d="M795.76 120l-14.26 4.64v-9.28z" stroke="#000" stroke-width="2"/><path d="M1117.2 87.33h183.3" stroke="#000" stroke-width="2" fill="none"/><path d="M1117.23 88.33h-1.03v-2h1.03z"/><path d="M1315.76 87.32l-14.26 4.63v-9.27z" stroke="#000" stroke-width="2"/><path d="M382 506h203c2.76 0 5-2.24 5-5V385c0-2.76 2.24-5 5-5h185.5" stroke="#000" stroke-width="2" fill="none"/><path d="M382.03 507H381v-2h1.03z"/><path d="M795.76 380l-14.26 4.64v-9.28z" stroke="#000" stroke-width="2"/><path d="M682 1013.2h98.5" stroke="#000" stroke-width="2" fill="none"/><path d="M682.03 1014.2H681v-2h1.03z"/><path d="M795.76 1013.2l-14.26 4.64v-9.28z" stroke="#000" stroke-width="2"/><path d="M1137.2 691.6h173.3" stroke="#000" stroke-width="2" fill="none"/><path d="M1137.23 692.6h-1.03v-2h1.03z"/><path d="M1325.76 691.6l-14.26 4.64v-9.28z" stroke="#000" stroke-width="2"/><path d="M1137.2 1013.2h173.3" stroke="#000" stroke-width="2" fill="none"/><path d="M1137.23 1014.2h-1.03v-2h1.03z"/><path d="M1325.76 1013.2l-14.26 4.64v-9.28z" stroke="#000" stroke-width="2"/><path d="M1137.2 380h163.3" stroke="#000" stroke-width="2" fill="none"/><path d="M1137.23 381h-1.03v-2h1.03z"/><path d="M1315.76 380l-14.26 4.64v-9.28z" stroke="#000" stroke-width="2"/><path d="M418 170h-97c-2.76 0-5 2.24-5 5v157.5" stroke="#000" stroke-width="2" fill="none"/><path d="M419 171h-1.03v-2H419z"/><path d="M316 347.76l-4.64-14.26h9.28z" stroke="#000" stroke-width="2"/><g><use xlink:href="#al" transform="matrix(1,0,0,1,409.00000000000006,144.39999999999998) translate(0 14.4)"/></g><g><use xlink:href="#am" transform="matrix(1,0,0,1,324,330.2000000000001) translate(0 14.4)"/></g><path d="M362 840h213c2.76 0 5-2.24 5-5V696.6c0-2.76 2.24-5 5-5h195.5" stroke="#000" stroke-width="2" fill="none"/><path d="M362.03 841H361v-2h1.03z"/><path d="M795.76 691.6l-14.26 4.64v-9.28z" stroke="#000" stroke-width="2"/><path d="M230 734v-31c0-2.76-2.24-5-5-5s-5-2.24-5-5v-13.5" stroke="#000" stroke-width="2" fill="none"/><path d="M231 735h-2v-1.03h2z"/><path d="M220 664.24l4.64 14.26h-9.28z" stroke="#000" stroke-width="2"/><g><use xlink:href="#al" transform="matrix(1,0,0,1,238,714.2) translate(0 14.4)"/></g><g><use xlink:href="#al" transform="matrix(1,0,0,1,202,660.2) translate(0 14.4)"/></g><path d="M262 116h138.5" stroke="#000" stroke-width="2" fill="none"/><path d="M262.03 117H261v-2h1.03z"/><path d="M415.76 116l-14.26 4.64v-9.28z" stroke="#000" stroke-width="2"/><g><use xlink:href="#al" transform="matrix(1,0,0,1,261,120.00000000000001) translate(0 14.4)"/></g><g><use xlink:href="#an" transform="matrix(1,0,0,1,412.49899999999997,90.40000000000002) translate(0 14.4)"/></g><path d="M190 1018v-31c0-2.76 2.24-5 5-5h30c2.76 0 5-2.24 5-5v-13.5" stroke="#000" stroke-width="2" fill="none"/><path d="M191 1019h-2v-1.03h2z"/><path d="M230 948.24l4.64 14.26h-9.28z" stroke="#000" stroke-width="2"/><g><use xlink:href="#am" transform="matrix(1,0,0,1,198,998.2000000000002) translate(0 14.4)"/></g><g><use xlink:href="#am" transform="matrix(1,0,0,1,195,944.2) translate(0 14.4)"/></g><path d="M580 921.2v-16c0-2.76-2.24-5-5-5h-30c-2.76 0-5-2.24-5-5V845c-2.76 0-5-2.24-5-5s2.24-5 5-5V577.67c0-2.76-2.24-5-5-5H399.5" stroke="#000" stroke-width="2" fill="none"/><path d="M581 922.2h-2v-1.03h2z"/><path d="M384.24 572.67l14.26-4.64v9.27z" stroke="#000" stroke-width="2"/><g><use xlink:href="#al" transform="matrix(1,0,0,1,588,901.3999999999999) translate(0 14.4)"/></g><g><use xlink:href="#am" transform="matrix(1,0,0,1,380.50000000000034,576.6666666666666) translate(0 14.4)"/></g><defs><path d="M232-93c-1 65-40 97-104 97C67 4 28-28 28-90v-158h33c8 89-33 224 67 224 102 0 64-133 71-224h33v155" id="ao"/><path d="M185-189c-5-48-123-54-124 2 14 75 158 14 163 119 3 78-121 87-175 55-17-10-28-26-33-46l33-7c5 56 141 63 141-1 0-78-155-14-162-118-5-82 145-84 179-34 5 7 8 16 11 25" id="ap"/><path d="M205 0l-28-72H64L36 0H1l101-248h38L239 0h-34zm-38-99l-47-123c-12 45-31 82-46 123h93" id="aq"/><path d="M233-177c-1 41-23 64-60 70L243 0h-38l-65-103H63V0H30v-248c88 3 205-21 203 71zM63-129c60-2 137 13 137-47 0-61-80-42-137-45v92" id="ar"/><path d="M33 0v-248h34V0H33" id="as"/><path d="M140-251c81 0 123 46 123 126C263-46 219 4 140 4 59 4 17-45 17-125s42-126 123-126zm0 227c63 0 89-41 89-101s-29-99-89-99c-61 0-89 39-89 99S79-25 140-24" id="at"/><g id="a"><use transform="matrix(0.05,0,0,0.05,0,0)" xlink:href="#ao"/><use transform="matrix(0.05,0,0,0.05,12.950000000000001,0)" xlink:href="#ap"/><use transform="matrix(0.05,0,0,0.05,24.950000000000003,0)" xlink:href="#ao"/><use transform="matrix(0.05,0,0,0.05,37.900000000000006,0)" xlink:href="#aq"/><use transform="matrix(0.05,0,0,0.05,49.900000000000006,0)" xlink:href="#ar"/><use transform="matrix(0.05,0,0,0.05,62.85,0)" xlink:href="#as"/><use transform="matrix(0.05,0,0,0.05,67.85000000000001,0)" xlink:href="#at"/><use transform="matrix(0.05,0,0,0.05,81.85000000000001,0)" xlink:href="#ap"/></g><path d="M85-194c31 0 48 13 60 33l-1-100h32l1 261h-30c-2-10 0-23-3-31C134-8 116 4 85 4 32 4 16-35 15-94c0-66 23-100 70-100zm9 24c-40 0-46 34-46 75 0 40 6 74 45 74 42 0 51-32 51-76 0-42-9-74-50-73" id="au"/><path d="M135-143c-3-34-86-38-87 0 15 53 115 12 119 90S17 21 10-45l28-5c4 36 97 45 98 0-10-56-113-15-118-90-4-57 82-63 122-42 12 7 21 19 24 35" id="av"/><path d="M84 4C-5 8 30-112 23-190h32v120c0 31 7 50 39 49 72-2 45-101 50-169h31l1 190h-30c-1-10 1-25-2-33-11 22-28 36-60 37" id="aw"/><path d="M141-36C126-15 110 5 73 4 37 3 15-17 15-53c-1-64 63-63 125-63 3-35-9-54-41-54-24 1-41 7-42 31l-33-3c5-37 33-52 76-52 45 0 72 20 72 64v82c-1 20 7 32 28 27v20c-31 9-61-2-59-35zM48-53c0 20 12 33 32 33 41-3 63-29 60-74-43 2-92-5-92 41" id="ax"/><path d="M114-163C36-179 61-72 57 0H25l-1-190h30c1 12-1 29 2 39 6-27 23-49 58-41v29" id="ay"/><path d="M24-231v-30h32v30H24zM24 0v-190h32V0H24" id="az"/><path d="M100-194c62-1 85 37 85 99 1 63-27 99-86 99S16-35 15-95c0-66 28-99 85-99zM99-20c44 1 53-31 53-75 0-43-8-75-51-75s-53 32-53 75 10 74 51 75" id="aA"/><g id="c"><use transform="matrix(0.05,0,0,0.05,0,0)" xlink:href="#as"/><use transform="matrix(0.05,0,0,0.05,5,0)" xlink:href="#au"/><use transform="matrix(0.05,0,0,0.05,15,0)" xlink:href="#ao"/><use transform="matrix(0.05,0,0,0.05,27.950000000000003,0)" xlink:href="#av"/><use transform="matrix(0.05,0,0,0.05,36.95,0)" xlink:href="#aw"/><use transform="matrix(0.05,0,0,0.05,46.95,0)" xlink:href="#ax"/><use transform="matrix(0.05,0,0,0.05,56.95,0)" xlink:href="#ay"/><use transform="matrix(0.05,0,0,0.05,62.900000000000006,0)" xlink:href="#az"/><use transform="matrix(0.05,0,0,0.05,66.85000000000001,0)" xlink:href="#aA"/></g><path d="M190 0L58-211 59 0H30v-248h39L202-35l-2-213h31V0h-41" id="aB"/><path d="M210-169c-67 3-38 105-44 169h-31v-121c0-29-5-50-35-48C34-165 62-65 56 0H25l-1-190h30c1 10-1 24 2 32 10-44 99-50 107 0 11-21 27-35 58-36 85-2 47 119 55 194h-31v-121c0-29-5-49-35-48" id="aC"/><path d="M115-194c53 0 69 39 70 98 0 66-23 100-70 100C84 3 66-7 56-30L54 0H23l1-261h32v101c10-23 28-34 59-34zm-8 174c40 0 45-34 45-75 0-40-5-75-45-74-42 0-51 32-51 76 0 43 10 73 51 73" id="aD"/><path d="M100-194c63 0 86 42 84 106H49c0 40 14 67 53 68 26 1 43-12 49-29l28 8c-11 28-37 45-77 45C44 4 14-33 15-96c1-61 26-98 85-98zm52 81c6-60-76-77-97-28-3 7-6 17-6 28h103" id="aE"/><g id="d"><use transform="matrix(0.05,0,0,0.05,0,0)" xlink:href="#aB"/><use transform="matrix(0.05,0,0,0.05,12.950000000000001,0)" xlink:href="#aA"/><use transform="matrix(0.05,0,0,0.05,22.950000000000003,0)" xlink:href="#aC"/><use transform="matrix(0.05,0,0,0.05,37.900000000000006,0)" xlink:href="#aD"/><use transform="matrix(0.05,0,0,0.05,47.900000000000006,0)" xlink:href="#ay"/><use transform="matrix(0.05,0,0,0.05,53.85,0)" xlink:href="#aE"/></g><path d="M115-194c55 1 70 41 70 98S169 2 115 4C84 4 66-9 55-30l1 105H24l-1-265h31l2 30c10-21 28-34 59-34zm-8 174c40 0 45-34 45-75s-6-73-45-74c-42 0-51 32-51 76 0 43 10 73 51 73" id="aF"/><path d="M24 0v-261h32V0H24" id="aG"/><g id="e"><use transform="matrix(0.05,0,0,0.05,0,0)" xlink:href="#aq"/><use transform="matrix(0.05,0,0,0.05,12,0)" xlink:href="#aF"/><use transform="matrix(0.05,0,0,0.05,22,0)" xlink:href="#aE"/><use transform="matrix(0.05,0,0,0.05,32,0)" xlink:href="#aG"/><use transform="matrix(0.05,0,0,0.05,35.95,0)" xlink:href="#aG"/><use transform="matrix(0.05,0,0,0.05,39.900000000000006,0)" xlink:href="#az"/><use transform="matrix(0.05,0,0,0.05,43.85000000000001,0)" xlink:href="#au"/><use transform="matrix(0.05,0,0,0.05,53.85,0)" xlink:href="#aA"/></g><path d="M63-220v92h138v28H63V0H30v-248h175v28H63" id="aH"/><path d="M96-169c-40 0-48 33-48 73s9 75 48 75c24 0 41-14 43-38l32 2c-6 37-31 61-74 61-59 0-76-41-82-99-10-93 101-131 147-64 4 7 5 14 7 22l-32 3c-4-21-16-35-41-35" id="aI"/><path d="M106-169C34-169 62-67 57 0H25v-261h32l-1 103c12-21 28-36 61-36 89 0 53 116 60 194h-32v-121c2-32-8-49-39-48" id="aJ"/><g id="f"><use transform="matrix(0.05,0,0,0.05,0,0)" xlink:href="#aH"/><use transform="matrix(0.05,0,0,0.05,10.950000000000001,0)" xlink:href="#aE"/><use transform="matrix(0.05,0,0,0.05,20.950000000000003,0)" xlink:href="#aI"/><use transform="matrix(0.05,0,0,0.05,29.950000000000003,0)" xlink:href="#aJ"/><use transform="matrix(0.05,0,0,0.05,39.95,0)" xlink:href="#ax"/><use transform="matrix(0.05,0,0,0.05,49.95,0)" xlink:href="#aB"/><use transform="matrix(0.05,0,0,0.05,62.900000000000006,0)" xlink:href="#ax"/><use transform="matrix(0.05,0,0,0.05,72.9,0)" xlink:href="#aI"/></g><path d="M30-248c118-7 216 8 213 122C240-48 200 0 122 0H30v-248zM63-27c89 8 146-16 146-99s-60-101-146-95v194" id="aK"/><path d="M117-194c89-4 53 116 60 194h-32v-121c0-31-8-49-39-48C34-167 62-67 57 0H25l-1-190h30c1 10-1 24 2 32 11-22 29-35 61-36" id="aL"/><g id="g"><use transform="matrix(0.05,0,0,0.05,0,0)" xlink:href="#aK"/><use transform="matrix(0.05,0,0,0.05,12.950000000000001,0)" xlink:href="#az"/><use transform="matrix(0.05,0,0,0.05,16.900000000000002,0)" xlink:href="#ay"/><use transform="matrix(0.05,0,0,0.05,22.85,0)" xlink:href="#aE"/><use transform="matrix(0.05,0,0,0.05,32.85,0)" xlink:href="#aI"/><use transform="matrix(0.05,0,0,0.05,41.85,0)" xlink:href="#aI"/><use transform="matrix(0.05,0,0,0.05,50.85,0)" xlink:href="#az"/><use transform="matrix(0.05,0,0,0.05,54.800000000000004,0)" xlink:href="#aA"/><use transform="matrix(0.05,0,0,0.05,64.80000000000001,0)" xlink:href="#aL"/></g><path d="M30 0v-248h187v28H63v79h144v27H63v87h162V0H30" id="aM"/><g id="h"><use transform="matrix(0.05,0,0,0.05,0,0)" xlink:href="#aM"/><use transform="matrix(0.05,0,0,0.05,12,0)" xlink:href="#aC"/><use transform="matrix(0.05,0,0,0.05,26.950000000000003,0)" xlink:href="#ax"/><use transform="matrix(0.05,0,0,0.05,36.95,0)" xlink:href="#az"/><use transform="matrix(0.05,0,0,0.05,40.900000000000006,0)" xlink:href="#aG"/></g><path d="M127-220V0H93v-220H8v-28h204v28h-85" id="aN"/><path d="M101-234c-31-9-42 10-38 44h38v23H63V0H32v-167H5v-23h27c-7-52 17-82 69-68v24" id="aO"/><g id="i"><use transform="matrix(0.05,0,0,0.05,0,0)" xlink:href="#aN"/><use transform="matrix(0.05,0,0,0.05,8.950000000000001,0)" xlink:href="#aE"/><use transform="matrix(0.05,0,0,0.05,18.950000000000003,0)" xlink:href="#aG"/><use transform="matrix(0.05,0,0,0.05,22.900000000000002,0)" xlink:href="#aE"/><use transform="matrix(0.05,0,0,0.05,32.900000000000006,0)" xlink:href="#aO"/><use transform="matrix(0.05,0,0,0.05,37.900000000000006,0)" xlink:href="#aA"/><use transform="matrix(0.05,0,0,0.05,47.900000000000006,0)" xlink:href="#aL"/><use transform="matrix(0.05,0,0,0.05,57.900000000000006,0)" xlink:href="#aA"/></g><path d="M30-248c87 1 191-15 191 75 0 78-77 80-158 76V0H30v-248zm33 125c57 0 124 11 124-50 0-59-68-47-124-48v98" id="aP"/><path d="M206 0h-36l-40-164L89 0H53L-1-190h32L70-26l43-164h34l41 164 42-164h31" id="aQ"/><g id="j"><use transform="matrix(0.05,0,0,0.05,0,0)" xlink:href="#aP"/><use transform="matrix(0.05,0,0,0.05,12,0)" xlink:href="#ax"/><use transform="matrix(0.05,0,0,0.05,22,0)" xlink:href="#av"/><use transform="matrix(0.05,0,0,0.05,31,0)" xlink:href="#av"/><use transform="matrix(0.05,0,0,0.05,40,0)" xlink:href="#aQ"/><use transform="matrix(0.05,0,0,0.05,52.95,0)" xlink:href="#aA"/><use transform="matrix(0.05,0,0,0.05,62.95,0)" xlink:href="#ay"/><use transform="matrix(0.05,0,0,0.05,68.9,0)" xlink:href="#au"/></g><g id="k"><use transform="matrix(0.05,0,0,0.05,0,0)" xlink:href="#as"/><use transform="matrix(0.05,0,0,0.05,5,0)" xlink:href="#au"/><use transform="matrix(0.05,0,0,0.05,15,0)" xlink:href="#ar"/><use transform="matrix(0.05,0,0,0.05,27.950000000000003,0)" xlink:href="#aA"/><use transform="matrix(0.05,0,0,0.05,37.95,0)" xlink:href="#aG"/></g><path d="M137 0h-34L2-248h35l83 218 83-218h36" id="aR"/><g id="l"><use transform="matrix(0.05,0,0,0.05,0,0)" xlink:href="#ar"/><use transform="matrix(0.05,0,0,0.05,12.950000000000001,0)" xlink:href="#aM"/><use transform="matrix(0.05,0,0,0.05,24.950000000000003,0)" xlink:href="#ap"/><use transform="matrix(0.05,0,0,0.05,36.95,0)" xlink:href="#aM"/><use transform="matrix(0.05,0,0,0.05,48.95,0)" xlink:href="#ar"/><use transform="matrix(0.05,0,0,0.05,61.550000000000004,0)" xlink:href="#aR"/><use transform="matrix(0.05,0,0,0.05,72.2,0)" xlink:href="#aq"/><use transform="matrix(0.05,0,0,0.05,84.2,0)" xlink:href="#ap"/></g><path d="M108 0H70L1-190h34L89-25l56-165h34" id="aS"/><g id="m"><use transform="matrix(0.05,0,0,0.05,0,0)" xlink:href="#as"/><use transform="matrix(0.05,0,0,0.05,5,0)" xlink:href="#au"/><use transform="matrix(0.05,0,0,0.05,15,0)" xlink:href="#ar"/><use transform="matrix(0.05,0,0,0.05,27.950000000000003,0)" xlink:href="#aE"/><use transform="matrix(0.05,0,0,0.05,37.95,0)" xlink:href="#av"/><use transform="matrix(0.05,0,0,0.05,46.95,0)" xlink:href="#aE"/><use transform="matrix(0.05,0,0,0.05,56.95,0)" xlink:href="#ay"/><use transform="matrix(0.05,0,0,0.05,62.900000000000006,0)" xlink:href="#aS"/><use transform="matrix(0.05,0,0,0.05,71.9,0)" xlink:href="#ax"/></g><path d="M59-47c-2 24 18 29 38 22v24C64 9 27 4 27-40v-127H5v-23h24l9-43h21v43h35v23H59v120" id="aT"/><g id="n"><use transform="matrix(0.05,0,0,0.05,0,0)" xlink:href="#as"/><use transform="matrix(0.05,0,0,0.05,5,0)" xlink:href="#au"/><use transform="matrix(0.05,0,0,0.05,15,0)" xlink:href="#aP"/><use transform="matrix(0.05,0,0,0.05,27,0)" xlink:href="#ay"/><use transform="matrix(0.05,0,0,0.05,32.95,0)" xlink:href="#aE"/><use transform="matrix(0.05,0,0,0.05,42.95,0)" xlink:href="#av"/><use transform="matrix(0.05,0,0,0.05,51.95,0)" xlink:href="#aw"/><use transform="matrix(0.05,0,0,0.05,61.95,0)" xlink:href="#aF"/><use transform="matrix(0.05,0,0,0.05,71.95,0)" xlink:href="#aw"/><use transform="matrix(0.05,0,0,0.05,81.95,0)" xlink:href="#aE"/><use transform="matrix(0.05,0,0,0.05,91.95,0)" xlink:href="#av"/><use transform="matrix(0.05,0,0,0.05,100.95,0)" xlink:href="#aT"/><use transform="matrix(0.05,0,0,0.05,105.95,0)" xlink:href="#aA"/></g><g id="o"><use transform="matrix(0.05,0,0,0.05,0,0)" xlink:href="#aM"/><use transform="matrix(0.05,0,0,0.05,12,0)" xlink:href="#av"/><use transform="matrix(0.05,0,0,0.05,21,0)" xlink:href="#aT"/><use transform="matrix(0.05,0,0,0.05,26,0)" xlink:href="#ax"/><use transform="matrix(0.05,0,0,0.05,36,0)" xlink:href="#au"/><use transform="matrix(0.05,0,0,0.05,46,0)" xlink:href="#aA"/></g><g id="p"><use transform="matrix(0.05,0,0,0.05,0,0)" xlink:href="#aR"/><use transform="matrix(0.05,0,0,0.05,10.65,0)" xlink:href="#ax"/><use transform="matrix(0.05,0,0,0.05,20.65,0)" xlink:href="#aG"/><use transform="matrix(0.05,0,0,0.05,24.599999999999998,0)" xlink:href="#aA"/><use transform="matrix(0.05,0,0,0.05,34.599999999999994,0)" xlink:href="#ay"/><use transform="matrix(0.05,0,0,0.05,40.55,0)" xlink:href="#ax"/><use transform="matrix(0.05,0,0,0.05,50.55,0)" xlink:href="#aI"/><use transform="matrix(0.05,0,0,0.05,59.54999999999999,0)" xlink:href="#az"/><use transform="matrix(0.05,0,0,0.05,63.5,0)" xlink:href="#aA"/><use transform="matrix(0.05,0,0,0.05,73.5,0)" xlink:href="#aL"/><use transform="matrix(0.05,0,0,0.05,83.5,0)" xlink:href="#ar"/><use transform="matrix(0.05,0,0,0.05,96.45,0)" xlink:href="#aE"/><use transform="matrix(0.05,0,0,0.05,106.45,0)" xlink:href="#av"/><use transform="matrix(0.05,0,0,0.05,115.45,0)" xlink:href="#aE"/><use transform="matrix(0.05,0,0,0.05,125.45,0)" xlink:href="#ay"/><use transform="matrix(0.05,0,0,0.05,131.4,0)" xlink:href="#aS"/><use transform="matrix(0.05,0,0,0.05,140.4,0)" xlink:href="#ax"/></g><path d="M212-179c-10-28-35-45-73-45-59 0-87 40-87 99 0 60 29 101 89 101 43 0 62-24 78-52l27 14C228-24 195 4 139 4 59 4 22-46 18-125c-6-104 99-153 187-111 19 9 31 26 39 46" id="aU"/><g id="q"><use transform="matrix(0.05,0,0,0.05,0,0)" xlink:href="#aR"/><use transform="matrix(0.05,0,0,0.05,10.65,0)" xlink:href="#ax"/><use transform="matrix(0.05,0,0,0.05,20.65,0)" xlink:href="#aG"/><use transform="matrix(0.05,0,0,0.05,24.599999999999998,0)" xlink:href="#aA"/><use transform="matrix(0.05,0,0,0.05,34.599999999999994,0)" xlink:href="#ay"/><use transform="matrix(0.05,0,0,0.05,40.55,0)" xlink:href="#ax"/><use transform="matrix(0.05,0,0,0.05,50.55,0)" xlink:href="#aI"/><use transform="matrix(0.05,0,0,0.05,59.54999999999999,0)" xlink:href="#az"/><use transform="matrix(0.05,0,0,0.05,63.5,0)" xlink:href="#aA"/><use transform="matrix(0.05,0,0,0.05,73.5,0)" xlink:href="#aL"/><use transform="matrix(0.05,0,0,0.05,83.5,0)" xlink:href="#aP"/><use transform="matrix(0.05,0,0,0.05,95.5,0)" xlink:href="#ay"/><use transform="matrix(0.05,0,0,0.05,101.45,0)" xlink:href="#aA"/><use transform="matrix(0.05,0,0,0.05,111.45,0)" xlink:href="#aC"/><use transform="matrix(0.05,0,0,0.05,126.4,0)" xlink:href="#aU"/><use transform="matrix(0.05,0,0,0.05,139.35,0)" xlink:href="#aA"/><use transform="matrix(0.05,0,0,0.05,149.35,0)" xlink:href="#aC"/><use transform="matrix(0.05,0,0,0.05,164.29999999999998,0)" xlink:href="#aE"/><use transform="matrix(0.05,0,0,0.05,174.29999999999998,0)" xlink:href="#aL"/><use transform="matrix(0.05,0,0,0.05,184.29999999999998,0)" xlink:href="#aT"/></g><path d="M240 0l2-218c-23 76-54 145-80 218h-23L58-218 59 0H30v-248h44l77 211c21-75 51-140 76-211h43V0h-30" id="aV"/><g id="r"><use transform="matrix(0.05,0,0,0.05,0,0)" xlink:href="#aU"/><use transform="matrix(0.05,0,0,0.05,12.950000000000001,0)" xlink:href="#at"/><use transform="matrix(0.05,0,0,0.05,26.950000000000003,0)" xlink:href="#aV"/><use transform="matrix(0.05,0,0,0.05,41.900000000000006,0)" xlink:href="#aM"/><use transform="matrix(0.05,0,0,0.05,53.900000000000006,0)" xlink:href="#aB"/><use transform="matrix(0.05,0,0,0.05,66.85000000000001,0)" xlink:href="#aN"/><use transform="matrix(0.05,0,0,0.05,76.45000000000002,0)" xlink:href="#aq"/><use transform="matrix(0.05,0,0,0.05,88.45000000000002,0)" xlink:href="#ar"/><use transform="matrix(0.05,0,0,0.05,101.40000000000002,0)" xlink:href="#as"/><use transform="matrix(0.05,0,0,0.05,106.40000000000003,0)" xlink:href="#at"/><use transform="matrix(0.05,0,0,0.05,120.40000000000003,0)" xlink:href="#ap"/></g><g id="s"><use transform="matrix(0.05,0,0,0.05,0,0)" xlink:href="#as"/><use transform="matrix(0.05,0,0,0.05,5,0)" xlink:href="#au"/><use transform="matrix(0.05,0,0,0.05,15,0)" xlink:href="#aU"/><use transform="matrix(0.05,0,0,0.05,27.950000000000003,0)" xlink:href="#aA"/><use transform="matrix(0.05,0,0,0.05,37.95,0)" xlink:href="#aC"/><use transform="matrix(0.05,0,0,0.05,52.900000000000006,0)" xlink:href="#aE"/><use transform="matrix(0.05,0,0,0.05,62.900000000000006,0)" xlink:href="#aL"/><use transform="matrix(0.05,0,0,0.05,72.9,0)" xlink:href="#aT"/><use transform="matrix(0.05,0,0,0.05,77.9,0)" xlink:href="#ax"/><use transform="matrix(0.05,0,0,0.05,87.9,0)" xlink:href="#ay"/><use transform="matrix(0.05,0,0,0.05,93.85000000000001,0)" xlink:href="#az"/><use transform="matrix(0.05,0,0,0.05,97.80000000000001,0)" xlink:href="#aA"/></g><g id="t"><use transform="matrix(0.05,0,0,0.05,0,0)" xlink:href="#aU"/><use transform="matrix(0.05,0,0,0.05,12.950000000000001,0)" xlink:href="#aA"/><use transform="matrix(0.05,0,0,0.05,22.950000000000003,0)" xlink:href="#aL"/><use transform="matrix(0.05,0,0,0.05,32.95,0)" xlink:href="#aT"/><use transform="matrix(0.05,0,0,0.05,37.95,0)" xlink:href="#aE"/><use transform="matrix(0.05,0,0,0.05,47.95,0)" xlink:href="#aL"/><use transform="matrix(0.05,0,0,0.05,57.95,0)" xlink:href="#az"/><use transform="matrix(0.05,0,0,0.05,61.900000000000006,0)" xlink:href="#au"/><use transform="matrix(0.05,0,0,0.05,71.9,0)" xlink:href="#aA"/></g><g id="u"><use transform="matrix(0.05,0,0,0.05,0,0)" xlink:href="#aR"/><use transform="matrix(0.05,0,0,0.05,10.65,0)" xlink:href="#ax"/><use transform="matrix(0.05,0,0,0.05,20.65,0)" xlink:href="#aG"/><use transform="matrix(0.05,0,0,0.05,24.599999999999998,0)" xlink:href="#aA"/><use transform="matrix(0.05,0,0,0.05,34.599999999999994,0)" xlink:href="#ay"/><use transform="matrix(0.05,0,0,0.05,40.55,0)" xlink:href="#ax"/><use transform="matrix(0.05,0,0,0.05,50.55,0)" xlink:href="#aI"/><use transform="matrix(0.05,0,0,0.05,59.54999999999999,0)" xlink:href="#az"/><use transform="matrix(0.05,0,0,0.05,63.5,0)" xlink:href="#aA"/><use transform="matrix(0.05,0,0,0.05,73.5,0)" xlink:href="#aL"/><use transform="matrix(0.05,0,0,0.05,83.5,0)" xlink:href="#aU"/><use transform="matrix(0.05,0,0,0.05,96.45,0)" xlink:href="#aA"/><use transform="matrix(0.05,0,0,0.05,106.45,0)" xlink:href="#aC"/><use transform="matrix(0.05,0,0,0.05,121.4,0)" xlink:href="#aE"/><use transform="matrix(0.05,0,0,0.05,131.4,0)" xlink:href="#aL"/><use transform="matrix(0.05,0,0,0.05,141.4,0)" xlink:href="#aT"/><use transform="matrix(0.05,0,0,0.05,146.4,0)" xlink:href="#ax"/><use transform="matrix(0.05,0,0,0.05,156.4,0)" xlink:href="#ay"/><use transform="matrix(0.05,0,0,0.05,162.35,0)" xlink:href="#az"/><use transform="matrix(0.05,0,0,0.05,166.29999999999998,0)" xlink:href="#aA"/></g><g id="v"><use transform="matrix(0.05,0,0,0.05,0,0)" xlink:href="#aH"/><use transform="matrix(0.05,0,0,0.05,10.950000000000001,0)" xlink:href="#aE"/><use transform="matrix(0.05,0,0,0.05,20.950000000000003,0)" xlink:href="#aI"/><use transform="matrix(0.05,0,0,0.05,29.950000000000003,0)" xlink:href="#aJ"/><use transform="matrix(0.05,0,0,0.05,39.95,0)" xlink:href="#ax"/></g><g id="w"><use transform="matrix(0.05,0,0,0.05,0,0)" xlink:href="#aM"/><use transform="matrix(0.05,0,0,0.05,12,0)" xlink:href="#aR"/><use transform="matrix(0.05,0,0,0.05,24,0)" xlink:href="#aM"/><use transform="matrix(0.05,0,0,0.05,36,0)" xlink:href="#aB"/><use transform="matrix(0.05,0,0,0.05,48.95,0)" xlink:href="#aN"/><use transform="matrix(0.05,0,0,0.05,59.550000000000004,0)" xlink:href="#at"/></g><g id="y"><use transform="matrix(0.05,0,0,0.05,0,0)" xlink:href="#as"/><use transform="matrix(0.05,0,0,0.05,5,0)" xlink:href="#au"/><use transform="matrix(0.05,0,0,0.05,15,0)" xlink:href="#aN"/><use transform="matrix(0.05,0,0,0.05,25.3,0)" xlink:href="#az"/><use transform="matrix(0.05,0,0,0.05,29.25,0)" xlink:href="#aF"/><use transform="matrix(0.05,0,0,0.05,39.25,0)" xlink:href="#aA"/><use transform="matrix(0.05,0,0,0.05,49.25,0)" xlink:href="#aM"/><use transform="matrix(0.05,0,0,0.05,61.25,0)" xlink:href="#aS"/><use transform="matrix(0.05,0,0,0.05,70.25,0)" xlink:href="#aE"/><use transform="matrix(0.05,0,0,0.05,80.25,0)" xlink:href="#aL"/><use transform="matrix(0.05,0,0,0.05,90.25,0)" xlink:href="#aT"/><use transform="matrix(0.05,0,0,0.05,95.25,0)" xlink:href="#aA"/></g><g id="z"><use transform="matrix(0.05,0,0,0.05,0,0)" xlink:href="#aK"/><use transform="matrix(0.05,0,0,0.05,12.950000000000001,0)" xlink:href="#aE"/><use transform="matrix(0.05,0,0,0.05,22.950000000000003,0)" xlink:href="#av"/><use transform="matrix(0.05,0,0,0.05,31.950000000000003,0)" xlink:href="#aI"/><use transform="matrix(0.05,0,0,0.05,40.95,0)" xlink:href="#ay"/><use transform="matrix(0.05,0,0,0.05,46.900000000000006,0)" xlink:href="#az"/><use transform="matrix(0.05,0,0,0.05,50.85000000000001,0)" xlink:href="#aF"/><use transform="matrix(0.05,0,0,0.05,60.85,0)" xlink:href="#aI"/><use transform="matrix(0.05,0,0,0.05,69.85000000000001,0)" xlink:href="#az"/><use transform="matrix(0.05,0,0,0.05,73.80000000000001,0)" xlink:href="#aA"/><use transform="matrix(0.05,0,0,0.05,83.80000000000001,0)" xlink:href="#aL"/></g><path d="M30 0v-248h33v221h125V0H30" id="aW"/><g id="A"><use transform="matrix(0.05,0,0,0.05,0,0)" xlink:href="#ar"/><use transform="matrix(0.05,0,0,0.05,12.950000000000001,0)" xlink:href="#at"/><use transform="matrix(0.05,0,0,0.05,26.950000000000003,0)" xlink:href="#aW"/><use transform="matrix(0.05,0,0,0.05,36.95,0)" xlink:href="#aM"/><use transform="matrix(0.05,0,0,0.05,48.95,0)" xlink:href="#ap"/></g><g id="B"><use transform="matrix(0.05,0,0,0.05,0,0)" xlink:href="#as"/><use transform="matrix(0.05,0,0,0.05,5,0)" xlink:href="#au"/><use transform="matrix(0.05,0,0,0.05,15,0)" xlink:href="#ar"/><use transform="matrix(0.05,0,0,0.05,27.950000000000003,0)" xlink:href="#aA"/><use transform="matrix(0.05,0,0,0.05,37.95,0)" xlink:href="#aG"/></g><path d="M33 0v-38h34V0H33" id="aX"/><g id="C"><use transform="matrix(0.05,0,0,0.05,0,0)" xlink:href="#ao"/><use transform="matrix(0.05,0,0,0.05,12.950000000000001,0)" xlink:href="#ap"/><use transform="matrix(0.05,0,0,0.05,24.950000000000003,0)" xlink:href="#ao"/><use transform="matrix(0.05,0,0,0.05,37.900000000000006,0)" xlink:href="#aq"/><use transform="matrix(0.05,0,0,0.05,49.900000000000006,0)" xlink:href="#ar"/><use transform="matrix(0.05,0,0,0.05,62.85,0)" xlink:href="#as"/><use transform="matrix(0.05,0,0,0.05,67.85000000000001,0)" xlink:href="#at"/><use transform="matrix(0.05,0,0,0.05,81.85000000000001,0)" xlink:href="#ap"/><use transform="matrix(0.05,0,0,0.05,93.85000000000001,0)" xlink:href="#aX"/><use transform="matrix(0.05,0,0,0.05,98.85000000000001,0)" xlink:href="#aU"/><use transform="matrix(0.05,0,0,0.05,111.80000000000001,0)" xlink:href="#aA"/><use transform="matrix(0.05,0,0,0.05,121.80000000000001,0)" xlink:href="#aL"/><use transform="matrix(0.05,0,0,0.05,131.8,0)" xlink:href="#aT"/><use transform="matrix(0.05,0,0,0.05,136.8,0)" xlink:href="#ay"/><use transform="matrix(0.05,0,0,0.05,142.75,0)" xlink:href="#aA"/><use transform="matrix(0.05,0,0,0.05,152.75,0)" xlink:href="#aG"/><use transform="matrix(0.05,0,0,0.05,156.7,0)" xlink:href="#aG"/><use transform="matrix(0.05,0,0,0.05,160.64999999999998,0)" xlink:href="#aE"/><use transform="matrix(0.05,0,0,0.05,170.64999999999998,0)" xlink:href="#ay"/></g><path d="M87 75C49 33 22-17 22-94c0-76 28-126 65-167h31c-38 41-64 92-64 168S80 34 118 75H87" id="aY"/><path d="M33-261c38 41 65 92 65 168S71 34 33 75H2C39 34 66-17 66-93S39-220 2-261h31" id="aZ"/><g id="D"><use transform="matrix(0.05,0,0,0.05,0,0)" xlink:href="#aS"/><use transform="matrix(0.05,0,0,0.05,9,0)" xlink:href="#ax"/><use transform="matrix(0.05,0,0,0.05,19,0)" xlink:href="#aG"/><use transform="matrix(0.05,0,0,0.05,22.95,0)" xlink:href="#az"/><use transform="matrix(0.05,0,0,0.05,26.899999999999995,0)" xlink:href="#au"/><use transform="matrix(0.05,0,0,0.05,36.9,0)" xlink:href="#ax"/><use transform="matrix(0.05,0,0,0.05,46.9,0)" xlink:href="#ay"/><use transform="matrix(0.05,0,0,0.05,52.85,0)" xlink:href="#aY"/><use transform="matrix(0.05,0,0,0.05,58.800000000000004,0)" xlink:href="#aZ"/></g><path d="M177-190C167-65 218 103 67 71c-23-6-38-20-44-43l32-5c15 47 100 32 89-28v-30C133-14 115 1 83 1 29 1 15-40 15-95c0-56 16-97 71-98 29-1 48 16 59 35 1-10 0-23 2-32h30zM94-22c36 0 50-32 50-73 0-42-14-75-50-75-39 0-46 34-46 75s6 73 46 73" id="ba"/><g id="E"><use transform="matrix(0.05,0,0,0.05,0,0)" xlink:href="#ax"/><use transform="matrix(0.05,0,0,0.05,10,0)" xlink:href="#ba"/><use transform="matrix(0.05,0,0,0.05,20,0)" xlink:href="#ay"/><use transform="matrix(0.05,0,0,0.05,25.950000000000003,0)" xlink:href="#aE"/><use transform="matrix(0.05,0,0,0.05,35.95,0)" xlink:href="#ba"/><use transform="matrix(0.05,0,0,0.05,45.95,0)" xlink:href="#ax"/><use transform="matrix(0.05,0,0,0.05,55.95,0)" xlink:href="#ay"/><use transform="matrix(0.05,0,0,0.05,61.900000000000006,0)" xlink:href="#aY"/><use transform="matrix(0.05,0,0,0.05,67.85000000000001,0)" xlink:href="#aZ"/></g><g id="F"><use transform="matrix(0.05,0,0,0.05,0,0)" xlink:href="#aE"/><use transform="matrix(0.05,0,0,0.05,10,0)" xlink:href="#aG"/><use transform="matrix(0.05,0,0,0.05,13.949999999999998,0)" xlink:href="#az"/><use transform="matrix(0.05,0,0,0.05,17.9,0)" xlink:href="#aC"/><use transform="matrix(0.05,0,0,0.05,32.85,0)" xlink:href="#az"/><use transform="matrix(0.05,0,0,0.05,36.800000000000004,0)" xlink:href="#aL"/><use transform="matrix(0.05,0,0,0.05,46.800000000000004,0)" xlink:href="#ax"/><use transform="matrix(0.05,0,0,0.05,56.800000000000004,0)" xlink:href="#ay"/><use transform="matrix(0.05,0,0,0.05,62.75,0)" xlink:href="#aY"/><use transform="matrix(0.05,0,0,0.05,68.7,0)" xlink:href="#aZ"/></g><g id="G"><use transform="matrix(0.05,0,0,0.05,0,0)" xlink:href="#aD"/><use transform="matrix(0.05,0,0,0.05,10,0)" xlink:href="#aw"/><use transform="matrix(0.05,0,0,0.05,20,0)" xlink:href="#av"/><use transform="matrix(0.05,0,0,0.05,29,0)" xlink:href="#aI"/><use transform="matrix(0.05,0,0,0.05,38,0)" xlink:href="#ax"/><use transform="matrix(0.05,0,0,0.05,48,0)" xlink:href="#ay"/><use transform="matrix(0.05,0,0,0.05,53.95,0)" xlink:href="#aY"/><use transform="matrix(0.05,0,0,0.05,59.900000000000006,0)" xlink:href="#aZ"/></g><g id="H"><use transform="matrix(0.05,0,0,0.05,0,0)" xlink:href="#aC"/><use transform="matrix(0.05,0,0,0.05,14.950000000000001,0)" xlink:href="#aA"/><use transform="matrix(0.05,0,0,0.05,24.950000000000003,0)" xlink:href="#au"/><use transform="matrix(0.05,0,0,0.05,34.95,0)" xlink:href="#az"/><use transform="matrix(0.05,0,0,0.05,38.900000000000006,0)" xlink:href="#aO"/><use transform="matrix(0.05,0,0,0.05,43.900000000000006,0)" xlink:href="#az"/><use transform="matrix(0.05,0,0,0.05,47.85000000000001,0)" xlink:href="#aI"/><use transform="matrix(0.05,0,0,0.05,56.85,0)" xlink:href="#ax"/><use transform="matrix(0.05,0,0,0.05,66.85000000000001,0)" xlink:href="#ay"/><use transform="matrix(0.05,0,0,0.05,72.80000000000001,0)" xlink:href="#aY"/><use transform="matrix(0.05,0,0,0.05,78.75000000000001,0)" xlink:href="#aZ"/></g><g id="I"><use transform="matrix(0.05,0,0,0.05,0,0)" xlink:href="#aP"/><use transform="matrix(0.05,0,0,0.05,12,0)" xlink:href="#ar"/><use transform="matrix(0.05,0,0,0.05,24.950000000000003,0)" xlink:href="#aM"/><use transform="matrix(0.05,0,0,0.05,36.95,0)" xlink:href="#ap"/><use transform="matrix(0.05,0,0,0.05,48.95,0)" xlink:href="#ao"/><use transform="matrix(0.05,0,0,0.05,61.900000000000006,0)" xlink:href="#aP"/><use transform="matrix(0.05,0,0,0.05,73.9,0)" xlink:href="#ao"/><use transform="matrix(0.05,0,0,0.05,86.85000000000001,0)" xlink:href="#aM"/><use transform="matrix(0.05,0,0,0.05,98.85000000000001,0)" xlink:href="#ap"/><use transform="matrix(0.05,0,0,0.05,110.85000000000001,0)" xlink:href="#aN"/><use transform="matrix(0.05,0,0,0.05,121.45,0)" xlink:href="#at"/><use transform="matrix(0.05,0,0,0.05,135.45000000000002,0)" xlink:href="#ap"/></g><g id="J"><use transform="matrix(0.05,0,0,0.05,0,0)" xlink:href="#aK"/><use transform="matrix(0.05,0,0,0.05,12.950000000000001,0)" xlink:href="#aE"/><use transform="matrix(0.05,0,0,0.05,22.950000000000003,0)" xlink:href="#av"/><use transform="matrix(0.05,0,0,0.05,31.950000000000003,0)" xlink:href="#aI"/><use transform="matrix(0.05,0,0,0.05,40.95,0)" xlink:href="#ay"/><use transform="matrix(0.05,0,0,0.05,46.900000000000006,0)" xlink:href="#az"/><use transform="matrix(0.05,0,0,0.05,50.85000000000001,0)" xlink:href="#aF"/><use transform="matrix(0.05,0,0,0.05,60.85,0)" xlink:href="#aI"/><use transform="matrix(0.05,0,0,0.05,69.85000000000001,0)" xlink:href="#az"/><use transform="matrix(0.05,0,0,0.05,73.80000000000001,0)" xlink:href="#aA"/><use transform="matrix(0.05,0,0,0.05,83.80000000000001,0)" xlink:href="#aL"/></g><g id="K"><use transform="matrix(0.05,0,0,0.05,0,0)" xlink:href="#aH"/><use transform="matrix(0.05,0,0,0.05,10.950000000000001,0)" xlink:href="#aE"/><use transform="matrix(0.05,0,0,0.05,20.950000000000003,0)" xlink:href="#aI"/><use transform="matrix(0.05,0,0,0.05,29.950000000000003,0)" xlink:href="#aJ"/><use transform="matrix(0.05,0,0,0.05,39.95,0)" xlink:href="#ax"/><use transform="matrix(0.05,0,0,0.05,49.95,0)" xlink:href="#as"/><use transform="matrix(0.05,0,0,0.05,54.95,0)" xlink:href="#aL"/><use transform="matrix(0.05,0,0,0.05,64.95,0)" xlink:href="#az"/><use transform="matrix(0.05,0,0,0.05,68.9,0)" xlink:href="#aI"/><use transform="matrix(0.05,0,0,0.05,77.9,0)" xlink:href="#az"/><use transform="matrix(0.05,0,0,0.05,81.85000000000001,0)" xlink:href="#aA"/></g><g id="L"><use transform="matrix(0.05,0,0,0.05,0,0)" xlink:href="#aH"/><use transform="matrix(0.05,0,0,0.05,10.950000000000001,0)" xlink:href="#aE"/><use transform="matrix(0.05,0,0,0.05,20.950000000000003,0)" xlink:href="#aI"/><use transform="matrix(0.05,0,0,0.05,29.950000000000003,0)" xlink:href="#aJ"/><use transform="matrix(0.05,0,0,0.05,39.95,0)" xlink:href="#ax"/><use transform="matrix(0.05,0,0,0.05,49.95,0)" xlink:href="#aH"/><use transform="matrix(0.05,0,0,0.05,60.900000000000006,0)" xlink:href="#az"/><use transform="matrix(0.05,0,0,0.05,64.85000000000001,0)" xlink:href="#aL"/></g><g id="M"><use transform="matrix(0.05,0,0,0.05,0,0)" xlink:href="#aU"/><use transform="matrix(0.05,0,0,0.05,12.950000000000001,0)" xlink:href="#ax"/><use transform="matrix(0.05,0,0,0.05,22.950000000000003,0)" xlink:href="#aL"/><use transform="matrix(0.05,0,0,0.05,32.95,0)" xlink:href="#aT"/><use transform="matrix(0.05,0,0,0.05,37.95,0)" xlink:href="#as"/><use transform="matrix(0.05,0,0,0.05,42.95,0)" xlink:href="#aL"/><use transform="matrix(0.05,0,0,0.05,52.95,0)" xlink:href="#aS"/><use transform="matrix(0.05,0,0,0.05,61.95,0)" xlink:href="#az"/><use transform="matrix(0.05,0,0,0.05,65.9,0)" xlink:href="#aT"/><use transform="matrix(0.05,0,0,0.05,70.9,0)" xlink:href="#ax"/><use transform="matrix(0.05,0,0,0.05,80.9,0)" xlink:href="#au"/><use transform="matrix(0.05,0,0,0.05,90.9,0)" xlink:href="#aA"/><use transform="matrix(0.05,0,0,0.05,100.9,0)" xlink:href="#av"/></g><path d="M24-231v-30h32v30H24zM-9 49c24 4 33-6 33-30v-209h32V24c2 40-23 58-65 49V49" id="bb"/><g id="N"><use transform="matrix(0.05,0,0,0.05,0,0)" xlink:href="#aV"/><use transform="matrix(0.05,0,0,0.05,14.950000000000001,0)" xlink:href="#aE"/><use transform="matrix(0.05,0,0,0.05,24.950000000000003,0)" xlink:href="#aL"/><use transform="matrix(0.05,0,0,0.05,34.95,0)" xlink:href="#av"/><use transform="matrix(0.05,0,0,0.05,43.95,0)" xlink:href="#ax"/><use transform="matrix(0.05,0,0,0.05,53.95,0)" xlink:href="#bb"/><use transform="matrix(0.05,0,0,0.05,57.900000000000006,0)" xlink:href="#aE"/></g><g id="O"><use transform="matrix(0.05,0,0,0.05,0,0)" xlink:href="#aP"/><use transform="matrix(0.05,0,0,0.05,12,0)" xlink:href="#ar"/><use transform="matrix(0.05,0,0,0.05,24.950000000000003,0)" xlink:href="#aM"/><use transform="matrix(0.05,0,0,0.05,36.95,0)" xlink:href="#ap"/><use transform="matrix(0.05,0,0,0.05,48.95,0)" xlink:href="#ao"/><use transform="matrix(0.05,0,0,0.05,61.900000000000006,0)" xlink:href="#aP"/><use transform="matrix(0.05,0,0,0.05,73.9,0)" xlink:href="#ao"/><use transform="matrix(0.05,0,0,0.05,86.85000000000001,0)" xlink:href="#aM"/><use transform="matrix(0.05,0,0,0.05,98.85000000000001,0)" xlink:href="#ap"/><use transform="matrix(0.05,0,0,0.05,110.85000000000001,0)" xlink:href="#aN"/><use transform="matrix(0.05,0,0,0.05,121.45,0)" xlink:href="#at"/><use transform="matrix(0.05,0,0,0.05,135.45000000000002,0)" xlink:href="#ap"/><use transform="matrix(0.05,0,0,0.05,147.45000000000002,0)" xlink:href="#aX"/><use transform="matrix(0.05,0,0,0.05,152.45000000000002,0)" xlink:href="#aU"/><use transform="matrix(0.05,0,0,0.05,165.4,0)" xlink:href="#aA"/><use transform="matrix(0.05,0,0,0.05,175.4,0)" xlink:href="#aL"/><use transform="matrix(0.05,0,0,0.05,185.4,0)" xlink:href="#aT"/><use transform="matrix(0.05,0,0,0.05,190.4,0)" xlink:href="#ay"/><use transform="matrix(0.05,0,0,0.05,196.35,0)" xlink:href="#aA"/><use transform="matrix(0.05,0,0,0.05,206.35000000000002,0)" xlink:href="#aG"/><use transform="matrix(0.05,0,0,0.05,210.29999999999995,0)" xlink:href="#aG"/><use transform="matrix(0.05,0,0,0.05,214.24999999999997,0)" xlink:href="#aE"/><use transform="matrix(0.05,0,0,0.05,224.24999999999997,0)" xlink:href="#ay"/></g><g id="P"><use transform="matrix(0.05,0,0,0.05,0,0)" xlink:href="#aI"/><use transform="matrix(0.05,0,0,0.05,9,0)" xlink:href="#ay"/><use transform="matrix(0.05,0,0,0.05,14.949999999999998,0)" xlink:href="#aE"/><use transform="matrix(0.05,0,0,0.05,24.95,0)" xlink:href="#ax"/><use transform="matrix(0.05,0,0,0.05,34.95,0)" xlink:href="#ay"/><use transform="matrix(0.05,0,0,0.05,40.900000000000006,0)" xlink:href="#aY"/><use transform="matrix(0.05,0,0,0.05,46.85000000000001,0)" xlink:href="#aZ"/></g><g id="Q"><use transform="matrix(0.05,0,0,0.05,0,0)" xlink:href="#aM"/><use transform="matrix(0.05,0,0,0.05,12,0)" xlink:href="#aR"/><use transform="matrix(0.05,0,0,0.05,24,0)" xlink:href="#aM"/><use transform="matrix(0.05,0,0,0.05,36,0)" xlink:href="#aB"/><use transform="matrix(0.05,0,0,0.05,48.95,0)" xlink:href="#aN"/><use transform="matrix(0.05,0,0,0.05,59.550000000000004,0)" xlink:href="#at"/><use transform="matrix(0.05,0,0,0.05,73.55000000000001,0)" xlink:href="#ap"/><use transform="matrix(0.05,0,0,0.05,85.55000000000001,0)" xlink:href="#aX"/><use transform="matrix(0.05,0,0,0.05,90.55000000000001,0)" xlink:href="#aU"/><use transform="matrix(0.05,0,0,0.05,103.5,0)" xlink:href="#aA"/><use transform="matrix(0.05,0,0,0.05,113.5,0)" xlink:href="#aL"/><use transform="matrix(0.05,0,0,0.05,123.5,0)" xlink:href="#aT"/><use transform="matrix(0.05,0,0,0.05,128.5,0)" xlink:href="#ay"/><use transform="matrix(0.05,0,0,0.05,134.45,0)" xlink:href="#aA"/><use transform="matrix(0.05,0,0,0.05,144.45,0)" xlink:href="#aG"/><use transform="matrix(0.05,0,0,0.05,148.39999999999998,0)" xlink:href="#aG"/><use transform="matrix(0.05,0,0,0.05,152.34999999999997,0)" xlink:href="#aE"/><use transform="matrix(0.05,0,0,0.05,162.34999999999997,0)" xlink:href="#ay"/></g><g id="R"><use transform="matrix(0.05,0,0,0.05,0,0)" xlink:href="#aC"/><use transform="matrix(0.05,0,0,0.05,14.950000000000001,0)" xlink:href="#aA"/><use transform="matrix(0.05,0,0,0.05,24.950000000000003,0)" xlink:href="#au"/><use transform="matrix(0.05,0,0,0.05,34.95,0)" xlink:href="#az"/><use transform="matrix(0.05,0,0,0.05,38.900000000000006,0)" xlink:href="#aO"/><use transform="matrix(0.05,0,0,0.05,43.900000000000006,0)" xlink:href="#az"/><use transform="matrix(0.05,0,0,0.05,47.85000000000001,0)" xlink:href="#aI"/><use transform="matrix(0.05,0,0,0.05,56.85,0)" xlink:href="#ax"/><use transform="matrix(0.05,0,0,0.05,66.85000000000001,0)" xlink:href="#ay"/><use transform="matrix(0.05,0,0,0.05,72.80000000000001,0)" xlink:href="#aY"/><use transform="matrix(0.05,0,0,0.05,78.75000000000001,0)" xlink:href="#aZ"/></g><g id="S"><use transform="matrix(0.05,0,0,0.05,0,0)" xlink:href="#aI"/><use transform="matrix(0.05,0,0,0.05,9,0)" xlink:href="#ax"/><use transform="matrix(0.05,0,0,0.05,19,0)" xlink:href="#ay"/><use transform="matrix(0.05,0,0,0.05,24.95,0)" xlink:href="#ba"/><use transform="matrix(0.05,0,0,0.05,34.95,0)" xlink:href="#ax"/><use transform="matrix(0.05,0,0,0.05,44.95,0)" xlink:href="#ay"/><use transform="matrix(0.05,0,0,0.05,50.900000000000006,0)" xlink:href="#aH"/><use transform="matrix(0.05,0,0,0.05,61.85,0)" xlink:href="#aA"/><use transform="matrix(0.05,0,0,0.05,71.85000000000001,0)" xlink:href="#aT"/><use transform="matrix(0.05,0,0,0.05,76.85000000000001,0)" xlink:href="#aA"/><use transform="matrix(0.05,0,0,0.05,86.85000000000001,0)" xlink:href="#av"/><use transform="matrix(0.05,0,0,0.05,95.85000000000001,0)" xlink:href="#aY"/><use transform="matrix(0.05,0,0,0.05,101.80000000000001,0)" xlink:href="#aZ"/></g><g id="T"><use transform="matrix(0.05,0,0,0.05,0,0)" xlink:href="#ar"/><use transform="matrix(0.05,0,0,0.05,12.950000000000001,0)" xlink:href="#aM"/><use transform="matrix(0.05,0,0,0.05,24.950000000000003,0)" xlink:href="#ap"/><use transform="matrix(0.05,0,0,0.05,36.95,0)" xlink:href="#aM"/><use transform="matrix(0.05,0,0,0.05,48.95,0)" xlink:href="#ar"/><use transform="matrix(0.05,0,0,0.05,61.550000000000004,0)" xlink:href="#aR"/><use transform="matrix(0.05,0,0,0.05,72.2,0)" xlink:href="#aq"/><use transform="matrix(0.05,0,0,0.05,84.2,0)" xlink:href="#ap"/><use transform="matrix(0.05,0,0,0.05,96.2,0)" xlink:href="#aX"/><use transform="matrix(0.05,0,0,0.05,101.2,0)" xlink:href="#aU"/><use transform="matrix(0.05,0,0,0.05,114.15,0)" xlink:href="#aA"/><use transform="matrix(0.05,0,0,0.05,124.15,0)" xlink:href="#aL"/><use transform="matrix(0.05,0,0,0.05,134.15,0)" xlink:href="#aT"/><use transform="matrix(0.05,0,0,0.05,139.15,0)" xlink:href="#ay"/><use transform="matrix(0.05,0,0,0.05,145.1,0)" xlink:href="#aA"/><use transform="matrix(0.05,0,0,0.05,155.1,0)" xlink:href="#aG"/><use transform="matrix(0.05,0,0,0.05,159.04999999999998,0)" xlink:href="#aG"/><use transform="matrix(0.05,0,0,0.05,162.99999999999997,0)" xlink:href="#aE"/><use transform="matrix(0.05,0,0,0.05,172.99999999999997,0)" xlink:href="#ay"/></g><g id="U"><use transform="matrix(0.05,0,0,0.05,0,0)" xlink:href="#ay"/><use transform="matrix(0.05,0,0,0.05,5.95,0)" xlink:href="#aE"/><use transform="matrix(0.05,0,0,0.05,15.949999999999998,0)" xlink:href="#av"/><use transform="matrix(0.05,0,0,0.05,24.95,0)" xlink:href="#aE"/><use transform="matrix(0.05,0,0,0.05,34.95,0)" xlink:href="#ay"/><use transform="matrix(0.05,0,0,0.05,40.900000000000006,0)" xlink:href="#aS"/><use transform="matrix(0.05,0,0,0.05,49.900000000000006,0)" xlink:href="#ax"/><use transform="matrix(0.05,0,0,0.05,59.900000000000006,0)" xlink:href="#ay"/><use transform="matrix(0.05,0,0,0.05,65.85000000000001,0)" xlink:href="#aY"/><use transform="matrix(0.05,0,0,0.05,71.80000000000001,0)" xlink:href="#aZ"/></g><g id="V"><use transform="matrix(0.05,0,0,0.05,0,0)" xlink:href="#aI"/><use transform="matrix(0.05,0,0,0.05,9,0)" xlink:href="#ax"/><use transform="matrix(0.05,0,0,0.05,19,0)" xlink:href="#ay"/><use transform="matrix(0.05,0,0,0.05,24.95,0)" xlink:href="#ba"/><use transform="matrix(0.05,0,0,0.05,34.95,0)" xlink:href="#ax"/><use transform="matrix(0.05,0,0,0.05,44.95,0)" xlink:href="#ay"/><use transform="matrix(0.05,0,0,0.05,50.900000000000006,0)" xlink:href="#aU"/><use transform="matrix(0.05,0,0,0.05,63.85,0)" xlink:href="#aA"/><use transform="matrix(0.05,0,0,0.05,73.85000000000001,0)" xlink:href="#aC"/><use transform="matrix(0.05,0,0,0.05,88.80000000000001,0)" xlink:href="#aE"/><use transform="matrix(0.05,0,0,0.05,98.80000000000001,0)" xlink:href="#aL"/><use transform="matrix(0.05,0,0,0.05,108.80000000000001,0)" xlink:href="#aT"/><use transform="matrix(0.05,0,0,0.05,113.80000000000001,0)" xlink:href="#ax"/><use transform="matrix(0.05,0,0,0.05,123.80000000000001,0)" xlink:href="#ay"/><use transform="matrix(0.05,0,0,0.05,129.75,0)" xlink:href="#az"/><use transform="matrix(0.05,0,0,0.05,133.7,0)" xlink:href="#aA"/><use transform="matrix(0.05,0,0,0.05,143.7,0)" xlink:href="#av"/><use transform="matrix(0.05,0,0,0.05,152.7,0)" xlink:href="#aY"/><use transform="matrix(0.05,0,0,0.05,158.64999999999998,0)" xlink:href="#aZ"/></g><g id="W"><use transform="matrix(0.05,0,0,0.05,0,0)" xlink:href="#ao"/><use transform="matrix(0.05,0,0,0.05,12.950000000000001,0)" xlink:href="#ap"/><use transform="matrix(0.05,0,0,0.05,24.950000000000003,0)" xlink:href="#ao"/><use transform="matrix(0.05,0,0,0.05,37.900000000000006,0)" xlink:href="#aq"/><use transform="matrix(0.05,0,0,0.05,49.900000000000006,0)" xlink:href="#ar"/><use transform="matrix(0.05,0,0,0.05,62.85,0)" xlink:href="#as"/><use transform="matrix(0.05,0,0,0.05,67.85000000000001,0)" xlink:href="#at"/><use transform="matrix(0.05,0,0,0.05,81.85000000000001,0)" xlink:href="#ap"/><use transform="matrix(0.05,0,0,0.05,93.85000000000001,0)" xlink:href="#aX"/><use transform="matrix(0.05,0,0,0.05,98.85000000000001,0)" xlink:href="#aV"/><use transform="matrix(0.05,0,0,0.05,113.80000000000001,0)" xlink:href="#aA"/><use transform="matrix(0.05,0,0,0.05,123.80000000000001,0)" xlink:href="#au"/><use transform="matrix(0.05,0,0,0.05,133.8,0)" xlink:href="#aE"/><use transform="matrix(0.05,0,0,0.05,143.8,0)" xlink:href="#aG"/></g><g id="X"><use transform="matrix(0.05,0,0,0.05,0,0)" xlink:href="#av"/><use transform="matrix(0.05,0,0,0.05,9,0)" xlink:href="#aE"/><use transform="matrix(0.05,0,0,0.05,19,0)" xlink:href="#aG"/><use transform="matrix(0.05,0,0,0.05,22.95,0)" xlink:href="#aE"/><use transform="matrix(0.05,0,0,0.05,32.95,0)" xlink:href="#aI"/><use transform="matrix(0.05,0,0,0.05,41.95,0)" xlink:href="#aT"/><use transform="matrix(0.05,0,0,0.05,46.95,0)" xlink:href="#aq"/><use transform="matrix(0.05,0,0,0.05,58.95,0)" xlink:href="#aG"/><use transform="matrix(0.05,0,0,0.05,62.900000000000006,0)" xlink:href="#aG"/><use transform="matrix(0.05,0,0,0.05,66.85000000000001,0)" xlink:href="#aY"/><use transform="matrix(0.05,0,0,0.05,72.80000000000001,0)" xlink:href="#aZ"/></g><g id="Y"><use transform="matrix(0.05,0,0,0.05,0,0)" xlink:href="#az"/><use transform="matrix(0.05,0,0,0.05,3.95,0)" xlink:href="#aL"/><use transform="matrix(0.05,0,0,0.05,13.949999999999998,0)" xlink:href="#av"/><use transform="matrix(0.05,0,0,0.05,22.95,0)" xlink:href="#aE"/><use transform="matrix(0.05,0,0,0.05,32.95,0)" xlink:href="#ay"/><use transform="matrix(0.05,0,0,0.05,38.900000000000006,0)" xlink:href="#aT"/><use transform="matrix(0.05,0,0,0.05,43.900000000000006,0)" xlink:href="#aY"/><use transform="matrix(0.05,0,0,0.05,49.85000000000001,0)" xlink:href="#aZ"/></g><g id="Z"><use transform="matrix(0.05,0,0,0.05,0,0)" xlink:href="#av"/><use transform="matrix(0.05,0,0,0.05,9,0)" xlink:href="#aE"/><use transform="matrix(0.05,0,0,0.05,19,0)" xlink:href="#aG"/><use transform="matrix(0.05,0,0,0.05,22.95,0)" xlink:href="#aE"/><use transform="matrix(0.05,0,0,0.05,32.95,0)" xlink:href="#aI"/><use transform="matrix(0.05,0,0,0.05,41.95,0)" xlink:href="#aT"/><use transform="matrix(0.05,0,0,0.05,46.95,0)" xlink:href="#as"/><use transform="matrix(0.05,0,0,0.05,51.95,0)" xlink:href="#aK"/><use transform="matrix(0.05,0,0,0.05,64.9,0)" xlink:href="#aY"/><use transform="matrix(0.05,0,0,0.05,70.85000000000001,0)" xlink:href="#aZ"/></g><g id="aa"><use transform="matrix(0.05,0,0,0.05,0,0)" xlink:href="#av"/><use transform="matrix(0.05,0,0,0.05,9,0)" xlink:href="#aE"/><use transform="matrix(0.05,0,0,0.05,19,0)" xlink:href="#aG"/><use transform="matrix(0.05,0,0,0.05,22.95,0)" xlink:href="#aE"/><use transform="matrix(0.05,0,0,0.05,32.95,0)" xlink:href="#aI"/><use transform="matrix(0.05,0,0,0.05,41.95,0)" xlink:href="#aT"/><use transform="matrix(0.05,0,0,0.05,46.95,0)" xlink:href="#aB"/><use transform="matrix(0.05,0,0,0.05,59.900000000000006,0)" xlink:href="#aA"/><use transform="matrix(0.05,0,0,0.05,69.9,0)" xlink:href="#aC"/><use transform="matrix(0.05,0,0,0.05,84.85000000000001,0)" xlink:href="#aD"/><use transform="matrix(0.05,0,0,0.05,94.85000000000001,0)" xlink:href="#ay"/><use transform="matrix(0.05,0,0,0.05,100.80000000000001,0)" xlink:href="#aE"/><use transform="matrix(0.05,0,0,0.05,110.80000000000001,0)" xlink:href="#aY"/><use transform="matrix(0.05,0,0,0.05,116.75,0)" xlink:href="#aZ"/></g><g id="ab"><use transform="matrix(0.05,0,0,0.05,0,0)" xlink:href="#av"/><use transform="matrix(0.05,0,0,0.05,9,0)" xlink:href="#aE"/><use transform="matrix(0.05,0,0,0.05,19,0)" xlink:href="#aG"/><use transform="matrix(0.05,0,0,0.05,22.95,0)" xlink:href="#aE"/><use transform="matrix(0.05,0,0,0.05,32.95,0)" xlink:href="#aI"/><use transform="matrix(0.05,0,0,0.05,41.95,0)" xlink:href="#aT"/><use transform="matrix(0.05,0,0,0.05,46.95,0)" xlink:href="#ar"/><use transform="matrix(0.05,0,0,0.05,59.900000000000006,0)" xlink:href="#aA"/><use transform="matrix(0.05,0,0,0.05,69.9,0)" xlink:href="#aG"/><use transform="matrix(0.05,0,0,0.05,73.85000000000001,0)" xlink:href="#aY"/><use transform="matrix(0.05,0,0,0.05,79.80000000000001,0)" xlink:href="#aZ"/></g><g id="ac"><use transform="matrix(0.05,0,0,0.05,0,0)" xlink:href="#aw"/><use transform="matrix(0.05,0,0,0.05,10,0)" xlink:href="#aF"/><use transform="matrix(0.05,0,0,0.05,20,0)" xlink:href="#au"/><use transform="matrix(0.05,0,0,0.05,30,0)" xlink:href="#ax"/><use transform="matrix(0.05,0,0,0.05,40,0)" xlink:href="#aT"/><use transform="matrix(0.05,0,0,0.05,45,0)" xlink:href="#aE"/><use transform="matrix(0.05,0,0,0.05,55,0)" xlink:href="#aY"/><use transform="matrix(0.05,0,0,0.05,60.95,0)" xlink:href="#aZ"/></g><g id="ad"><use transform="matrix(0.05,0,0,0.05,0,0)" xlink:href="#au"/><use transform="matrix(0.05,0,0,0.05,10,0)" xlink:href="#aE"/><use transform="matrix(0.05,0,0,0.05,20,0)" xlink:href="#aG"/><use transform="matrix(0.05,0,0,0.05,23.95,0)" xlink:href="#aE"/><use transform="matrix(0.05,0,0,0.05,33.95,0)" xlink:href="#aT"/><use transform="matrix(0.05,0,0,0.05,38.95,0)" xlink:href="#aE"/><use transform="matrix(0.05,0,0,0.05,48.95,0)" xlink:href="#aY"/><use transform="matrix(0.05,0,0,0.05,54.900000000000006,0)" xlink:href="#aZ"/></g><g id="ae"><use transform="matrix(0.05,0,0,0.05,0,0)" xlink:href="#aP"/><use transform="matrix(0.05,0,0,0.05,12,0)" xlink:href="#ar"/><use transform="matrix(0.05,0,0,0.05,24.950000000000003,0)" xlink:href="#aM"/><use transform="matrix(0.05,0,0,0.05,36.95,0)" xlink:href="#ap"/><use transform="matrix(0.05,0,0,0.05,48.95,0)" xlink:href="#ao"/><use transform="matrix(0.05,0,0,0.05,61.900000000000006,0)" xlink:href="#aP"/><use transform="matrix(0.05,0,0,0.05,73.9,0)" xlink:href="#ao"/><use transform="matrix(0.05,0,0,0.05,86.85000000000001,0)" xlink:href="#aM"/><use transform="matrix(0.05,0,0,0.05,98.85000000000001,0)" xlink:href="#ap"/><use transform="matrix(0.05,0,0,0.05,110.85000000000001,0)" xlink:href="#aN"/><use transform="matrix(0.05,0,0,0.05,121.45,0)" xlink:href="#at"/><use transform="matrix(0.05,0,0,0.05,135.45000000000002,0)" xlink:href="#aX"/><use transform="matrix(0.05,0,0,0.05,140.45000000000002,0)" xlink:href="#aV"/><use transform="matrix(0.05,0,0,0.05,155.4,0)" xlink:href="#aA"/><use transform="matrix(0.05,0,0,0.05,165.4,0)" xlink:href="#au"/><use transform="matrix(0.05,0,0,0.05,175.4,0)" xlink:href="#aE"/><use transform="matrix(0.05,0,0,0.05,185.4,0)" xlink:href="#aG"/></g><g id="af"><use transform="matrix(0.05,0,0,0.05,0,0)" xlink:href="#av"/><use transform="matrix(0.05,0,0,0.05,9,0)" xlink:href="#aE"/><use transform="matrix(0.05,0,0,0.05,19,0)" xlink:href="#aG"/><use transform="matrix(0.05,0,0,0.05,22.95,0)" xlink:href="#aE"/><use transform="matrix(0.05,0,0,0.05,32.95,0)" xlink:href="#aI"/><use transform="matrix(0.05,0,0,0.05,41.95,0)" xlink:href="#aT"/><use transform="matrix(0.05,0,0,0.05,46.95,0)" xlink:href="#aM"/><use transform="matrix(0.05,0,0,0.05,58.95,0)" xlink:href="#av"/><use transform="matrix(0.05,0,0,0.05,67.95,0)" xlink:href="#aT"/><use transform="matrix(0.05,0,0,0.05,72.95,0)" xlink:href="#ax"/><use transform="matrix(0.05,0,0,0.05,82.95,0)" xlink:href="#au"/><use transform="matrix(0.05,0,0,0.05,92.95,0)" xlink:href="#aA"/><use transform="matrix(0.05,0,0,0.05,102.95,0)" xlink:href="#aY"/><use transform="matrix(0.05,0,0,0.05,108.9,0)" xlink:href="#aZ"/></g><g id="ag"><use transform="matrix(0.05,0,0,0.05,0,0)" xlink:href="#aM"/><use transform="matrix(0.05,0,0,0.05,12,0)" xlink:href="#aR"/><use transform="matrix(0.05,0,0,0.05,24,0)" xlink:href="#aM"/><use transform="matrix(0.05,0,0,0.05,36,0)" xlink:href="#aB"/><use transform="matrix(0.05,0,0,0.05,48.95,0)" xlink:href="#aN"/><use transform="matrix(0.05,0,0,0.05,59.550000000000004,0)" xlink:href="#at"/><use transform="matrix(0.05,0,0,0.05,73.55000000000001,0)" xlink:href="#ap"/><use transform="matrix(0.05,0,0,0.05,85.55000000000001,0)" xlink:href="#aX"/><use transform="matrix(0.05,0,0,0.05,90.55000000000001,0)" xlink:href="#aV"/><use transform="matrix(0.05,0,0,0.05,105.5,0)" xlink:href="#aA"/><use transform="matrix(0.05,0,0,0.05,115.5,0)" xlink:href="#au"/><use transform="matrix(0.05,0,0,0.05,125.5,0)" xlink:href="#aE"/><use transform="matrix(0.05,0,0,0.05,135.5,0)" xlink:href="#aG"/></g><g id="ah"><use transform="matrix(0.05,0,0,0.05,0,0)" xlink:href="#av"/><use transform="matrix(0.05,0,0,0.05,9,0)" xlink:href="#aE"/><use transform="matrix(0.05,0,0,0.05,19,0)" xlink:href="#aG"/><use transform="matrix(0.05,0,0,0.05,22.95,0)" xlink:href="#aE"/><use transform="matrix(0.05,0,0,0.05,32.95,0)" xlink:href="#aI"/><use transform="matrix(0.05,0,0,0.05,41.95,0)" xlink:href="#aT"/><use transform="matrix(0.05,0,0,0.05,46.95,0)" xlink:href="#aN"/><use transform="matrix(0.05,0,0,0.05,57.25,0)" xlink:href="#az"/><use transform="matrix(0.05,0,0,0.05,61.20000000000002,0)" xlink:href="#aF"/><use transform="matrix(0.05,0,0,0.05,71.20000000000002,0)" xlink:href="#aA"/><use transform="matrix(0.05,0,0,0.05,81.20000000000002,0)" xlink:href="#aY"/><use transform="matrix(0.05,0,0,0.05,87.15000000000002,0)" xlink:href="#aZ"/></g><g id="ai"><use transform="matrix(0.05,0,0,0.05,0,0)" xlink:href="#ar"/><use transform="matrix(0.05,0,0,0.05,12.950000000000001,0)" xlink:href="#aM"/><use transform="matrix(0.05,0,0,0.05,24.950000000000003,0)" xlink:href="#ap"/><use transform="matrix(0.05,0,0,0.05,36.95,0)" xlink:href="#aM"/><use transform="matrix(0.05,0,0,0.05,48.95,0)" xlink:href="#ar"/><use transform="matrix(0.05,0,0,0.05,61.550000000000004,0)" xlink:href="#aR"/><use transform="matrix(0.05,0,0,0.05,72.2,0)" xlink:href="#aq"/><use transform="matrix(0.05,0,0,0.05,84.2,0)" xlink:href="#ap"/><use transform="matrix(0.05,0,0,0.05,96.2,0)" xlink:href="#aX"/><use transform="matrix(0.05,0,0,0.05,101.2,0)" xlink:href="#aV"/><use transform="matrix(0.05,0,0,0.05,116.15,0)" xlink:href="#aA"/><use transform="matrix(0.05,0,0,0.05,126.15,0)" xlink:href="#au"/><use transform="matrix(0.05,0,0,0.05,136.15,0)" xlink:href="#aE"/><use transform="matrix(0.05,0,0,0.05,146.15,0)" xlink:href="#aG"/></g><g id="aj"><use transform="matrix(0.05,0,0,0.05,0,0)" xlink:href="#av"/><use transform="matrix(0.05,0,0,0.05,9,0)" xlink:href="#aE"/><use transform="matrix(0.05,0,0,0.05,19,0)" xlink:href="#aG"/><use transform="matrix(0.05,0,0,0.05,22.95,0)" xlink:href="#aE"/><use transform="matrix(0.05,0,0,0.05,32.95,0)" xlink:href="#aI"/><use transform="matrix(0.05,0,0,0.05,41.95,0)" xlink:href="#aT"/><use transform="matrix(0.05,0,0,0.05,46.95,0)" xlink:href="#as"/><use transform="matrix(0.05,0,0,0.05,51.95,0)" xlink:href="#au"/><use transform="matrix(0.05,0,0,0.05,61.95,0)" xlink:href="#aY"/><use transform="matrix(0.05,0,0,0.05,67.9,0)" xlink:href="#aZ"/></g><g id="ak"><use transform="matrix(0.05,0,0,0.05,0,0)" xlink:href="#av"/><use transform="matrix(0.05,0,0,0.05,9,0)" xlink:href="#aE"/><use transform="matrix(0.05,0,0,0.05,19,0)" xlink:href="#aG"/><use transform="matrix(0.05,0,0,0.05,22.95,0)" xlink:href="#aE"/><use transform="matrix(0.05,0,0,0.05,32.95,0)" xlink:href="#aI"/><use transform="matrix(0.05,0,0,0.05,41.95,0)" xlink:href="#aT"/><use transform="matrix(0.05,0,0,0.05,46.95,0)" xlink:href="#aR"/><use transform="matrix(0.05,0,0,0.05,57.6,0)" xlink:href="#ax"/><use transform="matrix(0.05,0,0,0.05,67.6,0)" xlink:href="#aG"/><use transform="matrix(0.05,0,0,0.05,71.55,0)" xlink:href="#aA"/><use transform="matrix(0.05,0,0,0.05,81.55,0)" xlink:href="#ay"/><use transform="matrix(0.05,0,0,0.05,87.5,0)" xlink:href="#aY"/><use transform="matrix(0.05,0,0,0.05,93.45,0)" xlink:href="#aZ"/></g><path d="M27 0v-27h64v-190l-56 39v-29l58-41h29v221h61V0H27" id="bc"/><use transform="matrix(0.05,0,0,0.05,0,0)" xlink:href="#bc" id="al"/><path d="M101-251c68 0 85 55 85 127S166 4 100 4C33 4 14-52 14-124c0-73 17-127 87-127zm-1 229c47 0 54-49 54-102s-4-102-53-102c-51 0-55 48-55 102 0 53 5 102 54 102" id="bd"/><path d="M80-196l47-18 7 23-49 13 32 44-20 13-27-46-27 45-21-12 33-44-49-13 8-23 47 19-2-53h23" id="be"/><g id="am"><use transform="matrix(0.05,0,0,0.05,0,0)" xlink:href="#bd"/><use transform="matrix(0.05,0,0,0.05,10,0)" xlink:href="#aX"/><use transform="matrix(0.05,0,0,0.05,15,0)" xlink:href="#aX"/><use transform="matrix(0.05,0,0,0.05,20,0)" xlink:href="#be"/></g><use transform="matrix(0.05,0,0,0.05,0,0)" xlink:href="#be" id="an"/></defs></g></svg>